<?xml version="1.0" standalone="no"?><!DOCTYPE svg PUBLIC "-//W3C//DTD SVG 1.1//EN" "http://www.w3.org/Graphics/SVG/1.1/DTD/svg11.dtd"><svg t="1765011676360" class="icon" viewBox="0 0 1223 1024" version="1.1" xmlns="http://www.w3.org/2000/svg" p-id="10170" xmlns:xlink="http://www.w3.org/1999/xlink" width="238.8671875" height="200"><path d="M1131.628031 958.353v-105.295862h-81.934045v105.295862H957.524553V647.311412c0-25.100261 46.078348-95.930757 46.078349-95.930758s46.078348 70.830496 46.078348 95.930758V787.503534h81.934045v-140.192122c0-25.100261 46.078348-95.930757 46.078349-95.930758s46.078348 70.830496 46.078348 95.930758v311.041588z m-141.060284-430.149492l-84.366595-30.120313c-72.628375-37.063481-67.958559-71.828139-67.958559-71.828139-16.408035-25.471724-42.183297 4.646467-42.183298 4.646467l-21.082096 115.834787v41.707825c126.549892 141.310756 133.567352 282.61939 133.567352 282.61939v122.777954c0 32.442486-44.530941 30.120313-44.530942 30.120313-63.254781 0-53.896045-32.442486-53.896045-32.442485 0-134.363343-23.427618-183.018581-23.427618-183.018581l-86.714238-94.981936c-21.103323-23.151674-49.226229 44.03212-49.226229 44.03212l-121.848237 229.349524c-21.079974 41.707825-65.610915 34.741309-65.610915 34.741309-41.958297-12.863221-41.932825-42.48259-35.764423-63.286621h-79.346543v-105.297984h-81.919186v105.295862H174.103478v-105.295862h-81.934045v105.295862H0V647.311412c0-25.100261 46.078348-95.930757 46.078348-95.930758s46.078348 70.830496 46.078349 95.930758V787.503534h81.934045v-140.192122c0-25.100261 46.078348-95.930757 46.078349-95.930758s46.078348 70.830496 46.078348 95.930758V787.503534h81.919187v-140.192122c0-25.100261 46.10382-95.930757 46.10382-95.930758s46.078348 70.830496 46.078348 95.930758v282.14604l135.424666-306.272008v-148.279395c0-60.215155 65.610915-157.519263 65.610915-159.835068 7.042932-34.741309-30.47055-9.26534-30.47055-9.265339l-32.792722 25.471724c-32.818194 20.854974-37.513481 32.442486-37.513481 32.442485l-2.347644 148.253924c0 13.911807-44.530941 27.806632-44.530941 27.806632-25.775262 0-21.079974-37.063481-21.079974-37.063481v-194.582744c0-20.854974 28.122906-37.063481 28.122906-37.063481l199.201616-90.36094c46.878585-18.530679 84.366595 11.587512 84.366595 11.587511 77.323663 23.151674 91.384055 106.569447 91.384055 106.569448-4.663448 74.116349 84.375085 132.032681 84.375085 132.03268l75.001491 41.707825c25.775262 9.26534 9.365104 46.32882 9.365104 46.328821-7.019583 25.478092-53.898168 9.267462-53.898168 9.267462zM833.572777 171.433808c-49.226229 0-86.714239-37.063481-86.714239-85.714474S784.346548 0.002738 833.572777 0.002738a86.003153 86.003153 0 0 1 86.688767 85.714474c0.002123 48.64887-39.833531 85.716596-86.688767 85.716596z" fill="#f4ea2a" p-id="10171"></path></svg>