<?xml version="1.0" standalone="no"?><!DOCTYPE svg PUBLIC "-//W3C//DTD SVG 1.1//EN" "http://www.w3.org/Graphics/SVG/1.1/DTD/svg11.dtd"><svg t="1765011724191" class="icon" viewBox="0 0 1024 1024" version="1.1" xmlns="http://www.w3.org/2000/svg" p-id="11246" xmlns:xlink="http://www.w3.org/1999/xlink" width="200" height="200"><path d="M979.456 511.971556c-9.102222 15.075556-18.887111 29.724444-29.553778 43.747555-33.877333 45.226667-82.545778 97.223111-148.821333 159.146667-68.664889 64.199111-158.407111 140.771556-273.976889 234.069333a24.291556 24.291556 0 0 1-30.208 0c-115.598222-93.297778-205.312-169.870222-273.976889-234.069333-66.275556-61.923556-114.915556-113.948444-148.821333-159.146667A505.372444 505.372444 0 0 1 44.515556 512h164.920888a24.177778 24.177778 0 0 0 16.526223-6.4l70.172444-66.673778 125.155556 237.795556c3.896889 7.395556 11.946667 12.174222 20.849777 12.174222h1.308445a23.324444 23.324444 0 0 0 20.650667-14.250667l120.803555-306.318222 115.797333 220.046222a23.381333 23.381333 0 0 0 17.152 11.946667 23.921778 23.921778 0 0 0 20.195556-6.172444l86.272-81.92h155.136v-0.227556zM22.186667 467.598222h177.720889l86.272-81.948444a24.604444 24.604444 0 0 1 20.195555-6.200889c7.395556 1.251556 13.681778 5.575111 17.180445 11.975111l115.768888 220.046222 120.832-306.346666a23.011556 23.011556 0 0 1 20.650667-14.222223 23.352889 23.352889 0 0 1 21.930667 12.174223l125.155555 237.994666 70.172445-66.673778a23.779556 23.779556 0 0 1 16.497778-6.4h187.306666c4.124444-9.671111 7.594667-19.626667 10.439111-29.724444 9.756444-33.848889 11.719111-65.621333 11.719111-102.968889 0-117.048889-80.611556-220.245333-198.599111-254.122667-117.959111-33.848889-245.276444 9.927111-313.287111 107.349334-68.010667-97.621333-195.328-141.198222-313.315555-107.349334C80.611556 114.830222 0 218.055111 0 335.075556c0 37.347556 1.962667 68.949333 11.719111 102.997333 2.844444 9.898667 6.314667 19.825778 10.439111 29.525333z" fill="#CC1C24" p-id="11247"></path></svg>