<?xml version="1.0" standalone="no"?><!DOCTYPE svg PUBLIC "-//W3C//DTD SVG 1.1//EN" "http://www.w3.org/Graphics/SVG/1.1/DTD/svg11.dtd"><svg t="1765011981552" class="icon" viewBox="0 0 1024 1024" version="1.1" xmlns="http://www.w3.org/2000/svg" p-id="38875" xmlns:xlink="http://www.w3.org/1999/xlink" width="200" height="200"><path d="M837 512c0-86.8-33.8-168.4-95.2-229.8-7.9-7.9-16.2-15.4-24.8-22.4V97c0-13.8-11.2-25-25-25H332c-13.8 0-25 11.2-25 25v162.8c-8.6 7-16.9 14.5-24.8 22.4-61.4 61.4-95.2 143-95.2 229.8s33.8 168.4 95.2 229.8c7.9 7.9 16.2 15.4 24.8 22.4V927c0 13.8 11.2 25 25 25h360c13.8 0 25-11.2 25-25V764.2c8.6-7 16.9-14.5 24.8-22.4 61.4-61.4 95.2-143 95.2-229.8zM357 122h310v104.2C620 200.6 567 187 512 187s-108 13.6-155 39.2V122zM237 512c0-151.6 123.4-275 275-275s275 123.4 275 275-123.4 275-275 275-275-123.4-275-275z m430 390H357V797.8c47 25.6 100 39.2 155 39.2s108-13.6 155-39.2V902z" fill="#0782E7" p-id="38876"></path><path d="M672 537.1H511c-13.8 0-25-11.2-25-25V402.2h50v84.9h136v50z" fill="#8BC2F5" p-id="38877"></path></svg>